<?xml version="1.0" encoding="utf-8"?>
<!-- Generator: Adobe Illustrator 25.3.1, SVG Export Plug-In . SVG Version: 6.00 Build 0)  -->
<svg version="1.1" xmlns="http://www.w3.org/2000/svg" xmlns:xlink="http://www.w3.org/1999/xlink" x="0px" y="0px"
	 viewBox="0 0 2037.15 2037.15" style="enable-background:new 0 0 2037.15 2037.15;" xml:space="preserve">
<style type="text/css">
	.st0{fill:#FDB501;}
	.st1{display:none;}
	.st2{display:inline;}
	.st3{fill:#111111;}
	.st4{fill:#777777;}
	.st5{fill-rule:evenodd;clip-rule:evenodd;fill:#FCFCFC;}
</style>
<g id="BG">
</g>
<g id="Layer_1">
	<g>
		<g>
			<g>
				<path class="st0" d="M961.51,1955.88L81.27,1075.64c-31.52-31.52-31.52-82.61,0-114.13L961.51,81.27
					c31.52-31.52,82.61-31.52,114.13,0l880.24,880.24c31.52,31.52,31.52,82.61,0,114.13l-880.24,880.24
					C1044.13,1987.4,993.03,1987.4,961.51,1955.88z"/>
				<g>
					<path d="M1014.68,1944.61c-16.88-0.95-32.65-8.75-44.6-20.7l-858.06-858.06c-26.06-26.06-26.06-68.47,0-94.54l859.29-859.29
						c12.63-12.62,29.41-19.58,47.27-19.58c17.86,0,34.64,6.95,47.27,19.58l859.29,859.29c26.07,26.07,26.07,68.48,0,94.54
						l-859.29,859.29C1052.3,1938.68,1033.98,1945.7,1014.68,1944.61z M1018.58,125.14c-9.12,0-17.69,3.55-24.14,10L135.14,994.43
						c-13.31,13.31-13.31,34.97,0,48.29l858.29,858.29c6.22,6.22,14.38,10.46,23.16,10.95c9.85,0.55,19.21-3.03,26.13-9.94
						l859.29-859.29c6.91-6.92,10.5-16.27,9.94-26.13c-0.49-8.78-4.73-16.94-10.95-23.16l-858.29-858.29
						C1036.27,128.69,1027.7,125.14,1018.58,125.14z"/>
				</g>
			</g>
		</g>
	</g>
	<g class="st1">
		<g class="st2">
			<path d="M818.88,1228.32c-2.82-20.97-40.23-83.4-45.65-92.37l-0.01-1.09c0,0-0.11,0.19-0.32,0.55c-0.21-0.35-0.33-0.54-0.33-0.54
				l0.01,1.09c-5.29,9.04-41.8,72-44.31,93.02c0,0-11.35,57.13,45.4,57.16l0,0.01c0.11,0,0.22-0.01,0.33-0.01c0.11,0,0.22,0,0.33,0
				v-0.01C831.05,1285.27,818.88,1228.32,818.88,1228.32z"/>
			<path d="M943.89,1340.1c-2.78-20.98-40.06-83.48-45.47-92.46l-0.01-1.09c0,0-0.11,0.19-0.32,0.55c-0.21-0.35-0.33-0.54-0.33-0.54
				l0.01,1.09c-5.31,9.03-41.94,71.92-44.5,92.93c0,0-11.46,57.1,45.28,57.25l0,0.01c0.11,0,0.22-0.01,0.33-0.01
				c0.11,0,0.22,0,0.33,0v-0.01C955.95,1397.08,943.89,1340.1,943.89,1340.1z"/>
			<path d="M1066.1,1226.53c-2.82-20.97-40.23-83.4-45.65-92.37l-0.01-1.09c0,0-0.11,0.19-0.32,0.55c-0.21-0.35-0.33-0.54-0.33-0.54
				l0.01,1.09c-5.29,9.04-41.8,72-44.31,93.02c0,0-11.35,57.13,45.4,57.16l0,0.01c0.11,0,0.22-0.01,0.33-0.01c0.11,0,0.22,0,0.33,0
				v-0.01C1078.27,1283.49,1066.1,1226.53,1066.1,1226.53z"/>
			<path d="M1188.23,1338.82c-2.78-20.98-40.06-83.48-45.47-92.46l-0.01-1.09c0,0-0.11,0.19-0.32,0.55
				c-0.21-0.35-0.33-0.54-0.33-0.54l0.01,1.09c-5.31,9.03-41.94,71.92-44.5,92.93c0,0-11.46,57.1,45.28,57.25v0.01
				c0.11,0,0.22-0.01,0.33-0.01c0.11,0,0.22,0,0.33,0l0-0.01C1200.29,1395.8,1188.23,1338.82,1188.23,1338.82z"/>
			<path d="M1311.87,1224.76c-2.82-20.97-40.23-83.4-45.65-92.37l-0.01-1.09c0,0-0.11,0.19-0.32,0.55
				c-0.21-0.35-0.33-0.54-0.33-0.54l0.01,1.09c-5.29,9.04-41.8,72-44.31,93.02c0,0-11.35,57.13,45.4,57.16l0,0.01
				c0.11,0,0.22-0.01,0.33-0.01c0.11,0,0.22,0,0.33,0l0-0.01C1324.04,1281.72,1311.87,1224.76,1311.87,1224.76z"/>
		</g>
		<g class="st2">
			<ellipse transform="matrix(0.9998 -0.0223 0.0223 0.9998 -16.902 20.0368)" cx="888.67" cy="766.78" rx="146.61" ry="127.44"/>
			<ellipse transform="matrix(0.9998 -0.0223 0.0223 0.9998 -20.3469 17.1348)" cx="756.94" cy="919.48" rx="173.44" ry="147.09"/>
			<ellipse transform="matrix(0.9998 -0.0223 0.0223 0.9998 -21.2239 21.4185)" cx="948.6" cy="961.21" rx="157.15" ry="153.79"/>
			<ellipse transform="matrix(0.9998 -0.0223 0.0223 0.9998 -21.1763 25.7627)" cx="1143.66" cy="961.64" rx="157.15" ry="153.79"/>
			<ellipse transform="matrix(0.9998 -0.0223 0.0223 0.9998 -17.6529 25.7617)" cx="1144.92" cy="803.47" rx="164.33" ry="153.79"/>
			<ellipse transform="matrix(0.9998 -0.0223 0.0223 0.9998 -20.17 29.2816)" cx="1300.82" cy="917.63" rx="152.84" ry="131.51"/>
		</g>
	</g>
	<g class="st1">
		<polygon class="st2" points="1438.28,1369.43 1232.94,1300.49 1244.49,1516.78 1089.4,1365.58 1005.96,1565.47 931.82,1361.94 
			769.92,1505.83 791.43,1290.3 583.13,1349.69 696.03,1164.84 482.59,1127.97 664.52,1010.41 488.21,884.58 703.12,857.59 
			598.87,667.73 804.21,736.67 792.66,520.37 947.76,671.57 1031.2,471.69 1105.33,675.21 1267.24,531.32 1245.72,746.86 
			1454.02,687.47 1341.12,872.32 1554.56,909.19 1372.64,1026.75 1548.95,1152.58 1334.03,1179.56 		"/>
		<g class="st2">
			<path d="M1018.58,1391.96c-99.73,0-193.5-38.84-264.02-109.36c-70.52-70.52-109.36-164.29-109.36-264.02
				c0-99.73,38.84-193.5,109.36-264.02c70.52-70.52,164.29-109.36,264.02-109.36c99.73,0,193.5,38.84,264.02,109.36
				c70.52,70.52,109.36,164.29,109.36,264.02c0,99.73-38.84,193.5-109.36,264.02S1118.31,1391.96,1018.58,1391.96z"/>
			<path class="st0" d="M1018.58,682.79c45.36,0,89.33,8.87,130.68,26.36c39.98,16.91,75.89,41.13,106.76,71.99
				c30.86,30.86,55.08,66.78,71.99,106.76c17.49,41.35,26.36,85.32,26.36,130.68c0,45.36-8.87,89.33-26.36,130.68
				c-16.91,39.98-41.13,75.89-71.99,106.76c-30.86,30.86-66.78,55.08-106.76,71.99c-41.35,17.49-85.32,26.36-130.68,26.36
				s-89.33-8.87-130.68-26.36c-39.98-16.91-75.89-41.13-106.76-71.99c-30.86-30.86-55.08-66.78-71.99-106.76
				c-17.49-41.35-26.36-85.32-26.36-130.68c0-45.36,8.87-89.33,26.36-130.68c16.91-39.98,41.13-75.89,71.99-106.76
				s66.78-55.08,106.76-71.99C929.25,691.66,973.21,682.79,1018.58,682.79 M1018.58,607.6c-226.97,0-410.97,184-410.97,410.97
				s184,410.97,410.97,410.97s410.97-184,410.97-410.97S1245.55,607.6,1018.58,607.6L1018.58,607.6z"/>
		</g>
	</g>
	<g>
		<path class="st3" d="M771.72,1048.96c-5.87,2.71-9.07,9-7.83,15.35c1.78,8.84,11.2,13.59,19.4,9.93c-0.1,0.04-0.17,0.08,0.01,0
			l-0.03,0.01c0.84-0.37,1.72-0.69,2.58-0.99c6.39-2.22,13.36-3.64,20.08-4.34c-2.45,0.26,21.8-7.7,9.16-22.77
			c-2.97-3.54-7.52-5.36-12.11-4.87c-9.05,0.93-18.4,2.91-26.98,5.98C774.53,1047.79,773.15,1048.35,771.72,1048.96L771.72,1048.96z
			 M1265.86,1486.54c8.38,0.96,15.57-5.46,15.57-13.9c-0.06-7.01-5.28-12.84-12.23-13.7l-1.19-0.14l-1.17-0.14l-1.19-0.15l-1.2-0.15
			l-1.21-0.16l-1.22-0.17l-1.23-0.17l-1.24-0.18l-1.24-0.18l-1.26-0.19l-1.27-0.2l-1.27-0.2l-1.29-0.21l-1.3-0.22l-1.31-0.23
			l-1.31-0.23l-1.32-0.24l-1.34-0.25l-1.34-0.26l-1.35-0.26l-1.15-0.23c-12.17-2.36-21.11,10.97-14.31,21.33
			c2.08,3.09,5.18,5.19,8.84,5.92l1.26,0.25l1.46,0.28l1.45,0.28l1.44,0.27l1.43,0.26l1.43,0.25l1.41,0.25l1.4,0.24l1.4,0.23
			l1.38,0.22l1.37,0.22l1.37,0.21l1.35,0.2l1.34,0.19l1.33,0.19l1.32,0.19l1.31,0.17l1.3,0.17l1.29,0.17l1.27,0.15L1265.86,1486.54
			L1265.86,1486.54z M1155.04,1454.62c6.96,3.37,15.26,0.53,18.64-6.45c3.31-6.91,0.47-15.14-6.41-18.52l-1.61-0.78l-1.59-0.79
			l-1.6-0.8l-1.6-0.82l-1.6-0.82l-1.6-0.84l-1.6-0.85l-1.6-0.86l-1.6-0.88l-1.6-0.89l-1.6-0.9l-1.6-0.92l-1.6-0.93l-1.6-0.94
			l-0.98-0.59c-4.44-2.67-9.93-2.66-14.37,0c-8.94,5.45-8.94,18.37,0.01,23.8l1.13,0.68l1.75,1.04l1.76,1.02l1.75,1l1.75,0.99
			l1.76,0.98l1.75,0.96l1.75,0.94l1.75,0.93l1.75,0.92l1.75,0.9l1.75,0.89l1.75,0.88l1.75,0.86L1155.04,1454.62L1155.04,1454.62z
			 M1061.86,1386.07c7.34,7.92,20.45,4.87,23.55-5.48c1.36-4.74,0.23-9.72-3.11-13.36l-1.18-1.28l-1.47-1.61l-1.47-1.63l-1.46-1.64
			l-1.45-1.66l-1.45-1.68l-1.44-1.7l-1.43-1.72l-1.43-1.73l-1.42-1.75l-1.42-1.78l-1.41-1.79l-0.18-0.23
			c-6.85-8.91-20.87-6.45-24.29,4.27c-1.35,4.38-0.56,8.99,2.22,12.64l0.31,0.4l1.54,1.96l1.54,1.94l1.56,1.92l1.56,1.9l1.57,1.88
			l1.58,1.86l1.58,1.84l1.59,1.82l1.6,1.8l1.61,1.78l1.61,1.76L1061.86,1386.07L1061.86,1386.07z M998.92,1289.51
			c4.61,10.43,19.05,11.19,24.78,1.34c2.21-3.9,2.46-8.4,0.68-12.52l-0.77-1.74l-1.09-2.51l-1.08-2.54l-1.07-2.56l-1.06-2.58
			l-1.05-2.61l-1.03-2.63l-1.02-2.65l-1.01-2.68l-0.9-2.43c-3.99-10.9-18.82-12.4-24.91-2.5c-2.22,3.66-2.67,8-1.21,12.02l0.96,2.61
			l1.08,2.86l1.09,2.84l1.11,2.81l1.12,2.79l1.13,2.77l1.15,2.75l1.16,2.72l1.17,2.7L998.92,1289.51L998.92,1289.51z
			 M958.21,1186.69c4.86,9.9,18.66,10.53,24.4,1.1c2.43-4.11,2.68-8.95,0.6-13.26l-0.21-0.43l-1.11-2.27l-1.11-2.24l-1.12-2.22
			l-1.12-2.19l-1.13-2.17l-1.13-2.15l-1.13-2.12l-1.14-2.1l-1.14-2.07l-1.14-2.05l-1.15-2.03l-0.8-1.4
			c-5.69-9.82-20.07-9.07-24.74,1.3c-1.81,4.13-1.57,8.68,0.67,12.59l0.72,1.26l1.06,1.88l1.06,1.91l1.06,1.93l1.06,1.95l1.06,1.98
			l1.05,2l1.05,2.03l1.05,2.05l1.05,2.07l1.04,2.1l1.04,2.13L958.21,1186.69L958.21,1186.69z M897.18,1101.29
			c4.07,3.53,9.65,4.41,14.61,2.33c9.4-4.08,11.4-16.47,3.69-23.25l-0.17-0.15l-1.23-1.07l-1.23-1.05l-1.23-1.03l-1.23-1.02l-1.23-1
			l-1.23-0.98l-1.23-0.96l-1.23-0.95l-1.23-0.93l-1.24-0.92l-1.23-0.9l-1.23-0.88l-1.23-0.87l-1.23-0.85l-1.23-0.84l-1.23-0.82
			l-1.23-0.8l-1.22-0.78l-1.22-0.77l-0.66-0.4c-9.5-5.77-21.5,1.31-21.13,12.41c0.23,4.71,2.62,8.84,6.65,11.32l0.45,0.27l1.02,0.64
			l1.02,0.65l1.02,0.67l1.03,0.68l1.03,0.69l1.03,0.71l1.03,0.73l1.04,0.74l1.04,0.76l1.04,0.77l1.04,0.79l1.05,0.8l1.05,0.82
			l1.05,0.84l1.05,0.85l1.05,0.87l1.05,0.88l1.06,0.91l1.06,0.92L897.18,1101.29L897.18,1101.29z M783.32,1074.22L783.32,1074.22
			L783.32,1074.22z"/>
		<g>
			<g>
				<path d="M1306.15,1470.83c-3.51,0-6.96-0.99-9.95-2.85c-2.46-1.53-4.48-3.54-6.01-5.98c-9.61-13.56-22.28-30.12-35.7-47.64
					l-0.11-0.15c-57.15-74.64-135.42-176.86-135.42-248.51c0-50.05,18.57-97.18,52.28-132.72c33.95-35.78,79.15-55.49,127.27-55.49
					c48.12,0,93.32,19.71,127.27,55.49c33.71,35.53,52.28,82.66,52.28,132.72c0,63.47-71.31,169.45-123.38,246.84l-0.16,0.23
					c-12.76,18.97-23.78,35.35-32.36,49.13l0.01,0.03C1318.71,1467.5,1312.72,1470.83,1306.15,1470.83z"/>
				<path d="M1298.51,982.49c48.31,0,92.02,20.61,123.64,53.93c31.45,33.15,50.91,78.86,50.91,129.27
					c0,61.93-71.92,168.84-122.52,244.05c-12.67,18.84-23.96,35.61-32.62,49.53l0.02,0.01c-2.63,4.22-7.15,6.54-11.78,6.54
					c-2.5,0-5.03-0.68-7.31-2.09c-1.89-1.17-3.39-2.73-4.48-4.5c-9.7-13.69-22.21-30.03-36.01-48.06
					c-56.63-73.96-134.39-175.52-134.39-245.47c0-50.42,19.46-96.13,50.91-129.27C1206.48,1003.1,1250.19,982.49,1298.51,982.49
					 M1298.51,972.49c-25.03,0-49.3,5.16-72.15,15.34c-22.03,9.81-41.79,23.85-58.75,41.71c-16.83,17.74-30.05,38.37-39.27,61.31
					c-9.54,23.73-14.38,48.91-14.38,74.84c0,32.88,15.51,74.25,47.43,126.45c26.79,43.83,61.3,88.89,89.02,125.1l0.12,0.16
					c13.35,17.44,25.97,33.92,35.51,47.38c1.91,3,4.5,5.56,7.53,7.44c3.79,2.36,8.14,3.6,12.59,3.6c8.31,0,15.89-4.21,20.27-11.26
					l-0.01-0.03c8.53-13.71,19.54-30.08,32.29-49.03l0.12-0.18c52.43-77.92,124.23-184.64,124.23-249.63
					c0-25.93-4.84-51.11-14.38-74.84c-9.23-22.94-22.44-43.57-39.27-61.31c-16.95-17.87-36.72-31.9-58.74-41.71
					C1347.81,977.65,1323.53,972.49,1298.51,972.49L1298.51,972.49z"/>
			</g>
			<path class="st4" d="M1191.4,1132.58c0,29.58,11.99,56.35,31.37,75.74c19.38,19.38,46.16,31.37,75.74,31.37
				c29.58,0,56.35-11.99,75.74-31.37c19.38-19.38,31.38-46.16,31.38-75.74c0-29.58-11.99-56.35-31.38-75.74
				c-19.38-19.38-46.16-31.37-75.74-31.37c-29.58,0-56.35,11.99-75.74,31.37C1203.38,1076.23,1191.4,1103.01,1191.4,1132.58z"/>
			<path class="st5" d="M1205.44,1132.58c0,25.7,10.42,48.96,27.26,65.8c16.84,16.84,40.11,27.26,65.81,27.26
				s48.96-10.42,65.8-27.26c16.84-16.84,27.26-40.11,27.26-65.8s-10.42-48.97-27.26-65.81c-16.84-16.84-40.11-27.26-65.8-27.26
				s-48.97,10.42-65.81,27.26C1215.86,1083.62,1205.44,1106.89,1205.44,1132.58z"/>
		</g>
		<g>
			<g>
				<path d="M746.29,1038.86c-3.51,0-6.96-0.98-9.95-2.85c-2.43-1.51-4.5-3.58-6.01-5.98c-9.64-13.6-22.36-30.21-35.82-47.79
					C637.37,907.6,559.1,805.38,559.1,733.73c0-50.05,18.57-97.18,52.28-132.72c33.95-35.78,79.15-55.49,127.27-55.49
					c48.12,0,93.32,19.71,127.27,55.49c33.71,35.53,52.28,82.66,52.28,132.72c0,63.46-71.3,169.45-123.37,246.83
					c-12.85,19.1-23.92,35.55-32.52,49.37l0.01,0.03C758.85,1035.53,752.86,1038.86,746.29,1038.86z"/>
				<path d="M738.65,550.52c48.31,0,92.02,20.61,123.64,53.93c31.45,33.15,50.91,78.86,50.91,129.27
					c0,61.94-71.92,168.84-122.52,244.05c-12.68,18.84-23.96,35.61-32.62,49.53l0.02,0.01c-2.63,4.22-7.15,6.54-11.78,6.54
					c-2.5,0-5.03-0.68-7.31-2.09c-1.89-1.17-3.39-2.73-4.48-4.5c-9.7-13.69-22.21-30.03-36.01-48.06
					C641.86,905.24,564.1,803.68,564.1,733.73c0-50.42,19.46-96.13,50.91-129.27C646.63,571.13,690.34,550.52,738.65,550.52
					 M738.65,540.52c-25.03,0-49.3,5.16-72.15,15.33c-22.03,9.81-41.79,23.85-58.75,41.71c-16.83,17.74-30.05,38.37-39.27,61.31
					c-9.54,23.73-14.38,48.91-14.38,74.84c0,32.89,15.51,74.25,47.43,126.45c26.79,43.83,61.3,88.89,89.02,125.1
					c13.39,17.49,26.05,34.02,35.63,47.53c1.9,2.99,4.5,5.56,7.52,7.44c3.79,2.36,8.15,3.6,12.6,3.6c8.31,0,15.89-4.21,20.27-11.25
					l-0.01-0.03c8.54-13.73,19.57-30.12,32.33-49.09l0.08-0.12C851.4,905.43,923.2,798.71,923.2,733.73
					c0-25.93-4.84-51.11-14.38-74.84c-9.23-22.94-22.44-43.57-39.27-61.31c-16.95-17.87-36.72-31.9-58.75-41.71
					C787.95,545.68,763.68,540.52,738.65,540.52L738.65,540.52z"/>
			</g>
			<path class="st4" d="M631.54,724.59c0,29.58,11.99,56.35,31.37,75.74c19.38,19.38,46.16,31.37,75.74,31.37
				c29.57,0,56.35-11.99,75.74-31.37c19.38-19.38,31.37-46.16,31.37-75.74c0-29.58-11.99-56.36-31.37-75.74
				c-19.38-19.38-46.16-31.37-75.74-31.37c-29.58,0-56.36,11.99-75.74,31.37C643.53,668.23,631.54,695.01,631.54,724.59z"/>
			<path class="st5" d="M645.59,724.59c0,25.7,10.42,48.96,27.26,65.8c16.84,16.84,40.11,27.26,65.8,27.26
				c25.7,0,48.96-10.42,65.8-27.26c16.84-16.84,27.26-40.11,27.26-65.8c0-25.7-10.42-48.97-27.26-65.81
				c-16.84-16.84-40.11-27.26-65.8-27.26c-25.7,0-48.96,10.42-65.8,27.26C656,675.62,645.59,698.89,645.59,724.59z"/>
		</g>
	</g>
</g>
</svg>
