<?xml version="1.0" encoding="utf-8"?>
<!-- Generator: Adobe Illustrator 25.3.1, SVG Export Plug-In . SVG Version: 6.00 Build 0)  -->
<svg version="1.1" xmlns="http://www.w3.org/2000/svg" xmlns:xlink="http://www.w3.org/1999/xlink" x="0px" y="0px"
	 viewBox="0 0 2037.15 2037.15" style="enable-background:new 0 0 2037.15 2037.15;" xml:space="preserve">
<style type="text/css">
	.st0{fill:#FDB501;}
</style>
<g id="BG">
</g>
<g id="Layer_1">
	<g>
		<g>
			<g>
				<g>
					<path class="st0" d="M961.51,1955.88L81.27,1075.64c-31.52-31.52-31.52-82.61,0-114.13L961.51,81.27
						c31.52-31.52,82.61-31.52,114.13,0l880.24,880.24c31.52,31.52,31.52,82.61,0,114.13l-880.24,880.24
						C1044.13,1987.4,993.03,1987.4,961.51,1955.88z"/>
					<g>
						<path d="M1014.68,1944.61c-16.88-0.95-32.65-8.75-44.6-20.7l-858.06-858.06c-26.06-26.06-26.06-68.47,0-94.54l859.29-859.29
							c12.63-12.62,29.41-19.58,47.27-19.58c17.86,0,34.64,6.95,47.27,19.58l859.29,859.29c26.07,26.07,26.07,68.48,0,94.54
							l-859.29,859.29C1052.3,1938.68,1033.98,1945.7,1014.68,1944.61z M1018.58,125.14c-9.12,0-17.69,3.55-24.14,10L135.14,994.43
							c-13.31,13.31-13.31,34.97,0,48.29l858.29,858.29c6.22,6.22,14.38,10.46,23.16,10.95c9.85,0.55,19.21-3.03,26.13-9.94
							l859.29-859.29c6.91-6.92,10.5-16.27,9.94-26.13c-0.49-8.78-4.73-16.94-10.95-23.16l-858.29-858.29
							C1036.27,128.69,1027.7,125.14,1018.58,125.14z"/>
					</g>
				</g>
			</g>
		</g>
		<g>
			<g>
				<path d="M818.88,1228.32c-2.82-20.97-40.23-83.4-45.65-92.37l-0.01-1.09c0,0-0.11,0.19-0.32,0.55
					c-0.21-0.35-0.33-0.54-0.33-0.54l0.01,1.09c-5.29,9.04-41.8,72-44.31,93.02c0,0-11.35,57.13,45.4,57.16l0,0.01
					c0.11,0,0.22-0.01,0.33-0.01c0.11,0,0.22,0,0.33,0v-0.01C831.05,1285.27,818.88,1228.32,818.88,1228.32z"/>
				<path d="M943.89,1340.1c-2.78-20.98-40.06-83.48-45.47-92.46l-0.01-1.09c0,0-0.11,0.19-0.32,0.55
					c-0.21-0.35-0.33-0.54-0.33-0.54l0.01,1.09c-5.31,9.03-41.94,71.92-44.5,92.93c0,0-11.46,57.1,45.28,57.25l0,0.01
					c0.11,0,0.22-0.01,0.33-0.01c0.11,0,0.22,0,0.33,0v-0.01C955.95,1397.08,943.89,1340.1,943.89,1340.1z"/>
				<path d="M1066.1,1226.53c-2.82-20.97-40.23-83.4-45.65-92.37l-0.01-1.09c0,0-0.11,0.19-0.32,0.55
					c-0.21-0.35-0.33-0.54-0.33-0.54l0.01,1.09c-5.29,9.04-41.8,72-44.31,93.02c0,0-11.35,57.13,45.4,57.16l0,0.01
					c0.11,0,0.22-0.01,0.33-0.01c0.11,0,0.22,0,0.33,0v-0.01C1078.27,1283.49,1066.1,1226.53,1066.1,1226.53z"/>
				<path d="M1188.23,1338.82c-2.78-20.98-40.06-83.48-45.47-92.46l-0.01-1.09c0,0-0.11,0.19-0.32,0.55
					c-0.21-0.35-0.33-0.54-0.33-0.54l0.01,1.09c-5.31,9.03-41.94,71.92-44.5,92.93c0,0-11.46,57.1,45.28,57.25v0.01
					c0.11,0,0.22-0.01,0.33-0.01c0.11,0,0.22,0,0.33,0l0-0.01C1200.29,1395.8,1188.23,1338.82,1188.23,1338.82z"/>
				<path d="M1311.87,1224.76c-2.82-20.97-40.23-83.4-45.65-92.37l-0.01-1.09c0,0-0.11,0.19-0.32,0.55
					c-0.21-0.35-0.33-0.54-0.33-0.54l0.01,1.09c-5.29,9.04-41.8,72-44.31,93.02c0,0-11.35,57.13,45.4,57.16l0,0.01
					c0.11,0,0.22-0.01,0.33-0.01c0.11,0,0.22,0,0.33,0l0-0.01C1324.04,1281.72,1311.87,1224.76,1311.87,1224.76z"/>
			</g>
			<g>
				<ellipse transform="matrix(0.9998 -0.0223 0.0223 0.9998 -16.902 20.0368)" cx="888.67" cy="766.78" rx="146.61" ry="127.44"/>
				<ellipse transform="matrix(0.9998 -0.0223 0.0223 0.9998 -20.3469 17.1348)" cx="756.94" cy="919.48" rx="173.44" ry="147.09"/>
				<ellipse transform="matrix(0.9998 -0.0223 0.0223 0.9998 -21.2239 21.4185)" cx="948.6" cy="961.21" rx="157.15" ry="153.79"/>
				
					<ellipse transform="matrix(0.9998 -0.0223 0.0223 0.9998 -21.1763 25.7627)" cx="1143.66" cy="961.64" rx="157.15" ry="153.79"/>
				
					<ellipse transform="matrix(0.9998 -0.0223 0.0223 0.9998 -17.6529 25.7617)" cx="1144.92" cy="803.47" rx="164.33" ry="153.79"/>
				<ellipse transform="matrix(0.9998 -0.0223 0.0223 0.9998 -20.17 29.2816)" cx="1300.82" cy="917.63" rx="152.84" ry="131.51"/>
			</g>
		</g>
	</g>
</g>
</svg>
