<?xml version="1.0" encoding="utf-8"?>
<!-- Generator: Adobe Illustrator 25.3.1, SVG Export Plug-In . SVG Version: 6.00 Build 0)  -->
<svg version="1.1" xmlns="http://www.w3.org/2000/svg" xmlns:xlink="http://www.w3.org/1999/xlink" x="0px" y="0px"
	 viewBox="0 0 2037.15 2037.15" style="enable-background:new 0 0 2037.15 2037.15;" xml:space="preserve">
<style type="text/css">
	.st0{fill:#FDB501;}
	.st1{display:none;}
	.st2{display:inline;}
</style>
<g id="BG">
</g>
<g id="Layer_1">
	<g>
		<g>
			<g>
				<path class="st0" d="M961.51,1955.88L81.27,1075.64c-31.52-31.52-31.52-82.61,0-114.13L961.51,81.27
					c31.52-31.52,82.61-31.52,114.13,0l880.24,880.24c31.52,31.52,31.52,82.61,0,114.13l-880.24,880.24
					C1044.13,1987.4,993.03,1987.4,961.51,1955.88z"/>
				<g>
					<path d="M1014.68,1944.61c-16.88-0.95-32.65-8.75-44.6-20.7l-858.06-858.06c-26.06-26.06-26.06-68.47,0-94.54l859.29-859.29
						c12.63-12.62,29.41-19.58,47.27-19.58c17.86,0,34.64,6.95,47.27,19.58l859.29,859.29c26.07,26.07,26.07,68.48,0,94.54
						l-859.29,859.29C1052.3,1938.68,1033.98,1945.7,1014.68,1944.61z M1018.58,125.14c-9.12,0-17.69,3.55-24.14,10L135.14,994.43
						c-13.31,13.31-13.31,34.97,0,48.29l858.29,858.29c6.22,6.22,14.38,10.46,23.16,10.95c9.85,0.55,19.21-3.03,26.13-9.94
						l859.29-859.29c6.91-6.92,10.5-16.27,9.94-26.13c-0.49-8.78-4.73-16.94-10.95-23.16l-858.29-858.29
						C1036.27,128.69,1027.7,125.14,1018.58,125.14z"/>
				</g>
			</g>
		</g>
	</g>
	<g class="st1">
		<g class="st2">
			<path d="M818.88,1228.32c-2.82-20.97-40.23-83.4-45.65-92.37l-0.01-1.09c0,0-0.11,0.19-0.32,0.55c-0.21-0.35-0.33-0.54-0.33-0.54
				l0.01,1.09c-5.29,9.04-41.8,72-44.31,93.02c0,0-11.35,57.13,45.4,57.16l0,0.01c0.11,0,0.22-0.01,0.33-0.01c0.11,0,0.22,0,0.33,0
				v-0.01C831.05,1285.27,818.88,1228.32,818.88,1228.32z"/>
			<path d="M943.89,1340.1c-2.78-20.98-40.06-83.48-45.47-92.46l-0.01-1.09c0,0-0.11,0.19-0.32,0.55c-0.21-0.35-0.33-0.54-0.33-0.54
				l0.01,1.09c-5.31,9.03-41.94,71.92-44.5,92.93c0,0-11.46,57.1,45.28,57.25l0,0.01c0.11,0,0.22-0.01,0.33-0.01
				c0.11,0,0.22,0,0.33,0v-0.01C955.95,1397.08,943.89,1340.1,943.89,1340.1z"/>
			<path d="M1066.1,1226.53c-2.82-20.97-40.23-83.4-45.65-92.37l-0.01-1.09c0,0-0.11,0.19-0.32,0.55c-0.21-0.35-0.33-0.54-0.33-0.54
				l0.01,1.09c-5.29,9.04-41.8,72-44.31,93.02c0,0-11.35,57.13,45.4,57.16l0,0.01c0.11,0,0.22-0.01,0.33-0.01c0.11,0,0.22,0,0.33,0
				v-0.01C1078.27,1283.49,1066.1,1226.53,1066.1,1226.53z"/>
			<path d="M1188.23,1338.82c-2.78-20.98-40.06-83.48-45.47-92.46l-0.01-1.09c0,0-0.11,0.19-0.32,0.55
				c-0.21-0.35-0.33-0.54-0.33-0.54l0.01,1.09c-5.31,9.03-41.94,71.92-44.5,92.93c0,0-11.46,57.1,45.28,57.25v0.01
				c0.11,0,0.22-0.01,0.33-0.01c0.11,0,0.22,0,0.33,0l0-0.01C1200.29,1395.8,1188.23,1338.82,1188.23,1338.82z"/>
			<path d="M1311.87,1224.76c-2.82-20.97-40.23-83.4-45.65-92.37l-0.01-1.09c0,0-0.11,0.19-0.32,0.55
				c-0.21-0.35-0.33-0.54-0.33-0.54l0.01,1.09c-5.29,9.04-41.8,72-44.31,93.02c0,0-11.35,57.13,45.4,57.16l0,0.01
				c0.11,0,0.22-0.01,0.33-0.01c0.11,0,0.22,0,0.33,0l0-0.01C1324.04,1281.72,1311.87,1224.76,1311.87,1224.76z"/>
		</g>
		<g class="st2">
			<ellipse transform="matrix(0.9998 -0.0223 0.0223 0.9998 -16.902 20.0368)" cx="888.67" cy="766.78" rx="146.61" ry="127.44"/>
			<ellipse transform="matrix(0.9998 -0.0223 0.0223 0.9998 -20.3469 17.1348)" cx="756.94" cy="919.48" rx="173.44" ry="147.09"/>
			<ellipse transform="matrix(0.9998 -0.0223 0.0223 0.9998 -21.2239 21.4185)" cx="948.6" cy="961.21" rx="157.15" ry="153.79"/>
			<ellipse transform="matrix(0.9998 -0.0223 0.0223 0.9998 -21.1763 25.7627)" cx="1143.66" cy="961.64" rx="157.15" ry="153.79"/>
			<ellipse transform="matrix(0.9998 -0.0223 0.0223 0.9998 -17.6529 25.7617)" cx="1144.92" cy="803.47" rx="164.33" ry="153.79"/>
			<ellipse transform="matrix(0.9998 -0.0223 0.0223 0.9998 -20.17 29.2816)" cx="1300.82" cy="917.63" rx="152.84" ry="131.51"/>
		</g>
	</g>
	<g>
		<polygon points="1438.28,1369.43 1232.94,1300.49 1244.49,1516.78 1089.4,1365.58 1005.96,1565.47 931.82,1361.94 769.92,1505.83 
			791.43,1290.3 583.13,1349.69 696.03,1164.84 482.59,1127.97 664.52,1010.41 488.21,884.58 703.12,857.59 598.87,667.73 
			804.21,736.67 792.66,520.37 947.76,671.57 1031.2,471.69 1105.33,675.21 1267.24,531.32 1245.72,746.86 1454.02,687.47 
			1341.12,872.32 1554.56,909.19 1372.64,1026.75 1548.95,1152.58 1334.03,1179.56 		"/>
		<g>
			<path d="M1018.58,1391.96c-99.73,0-193.5-38.84-264.02-109.36c-70.52-70.52-109.36-164.29-109.36-264.02
				c0-99.73,38.84-193.5,109.36-264.02c70.52-70.52,164.29-109.36,264.02-109.36c99.73,0,193.5,38.84,264.02,109.36
				c70.52,70.52,109.36,164.29,109.36,264.02c0,99.73-38.84,193.5-109.36,264.02S1118.31,1391.96,1018.58,1391.96z"/>
			<path class="st0" d="M1018.58,682.79c45.36,0,89.33,8.87,130.68,26.36c39.98,16.91,75.89,41.13,106.76,71.99
				c30.86,30.86,55.08,66.78,71.99,106.76c17.49,41.35,26.36,85.32,26.36,130.68c0,45.36-8.87,89.33-26.36,130.68
				c-16.91,39.98-41.13,75.89-71.99,106.76c-30.86,30.86-66.78,55.08-106.76,71.99c-41.35,17.49-85.32,26.36-130.68,26.36
				s-89.33-8.87-130.68-26.36c-39.98-16.91-75.89-41.13-106.76-71.99c-30.86-30.86-55.08-66.78-71.99-106.76
				c-17.49-41.35-26.36-85.32-26.36-130.68c0-45.36,8.87-89.33,26.36-130.68c16.91-39.98,41.13-75.89,71.99-106.76
				s66.78-55.08,106.76-71.99C929.25,691.66,973.21,682.79,1018.58,682.79 M1018.58,607.6c-226.97,0-410.97,184-410.97,410.97
				s184,410.97,410.97,410.97s410.97-184,410.97-410.97S1245.55,607.6,1018.58,607.6L1018.58,607.6z"/>
		</g>
	</g>
</g>
</svg>
