<?xml version="1.0" encoding="utf-8"?>
<!-- Generator: Adobe Illustrator 25.3.1, SVG Export Plug-In . SVG Version: 6.00 Build 0)  -->
<svg version="1.1" id="Layer_1" xmlns="http://www.w3.org/2000/svg" xmlns:xlink="http://www.w3.org/1999/xlink" x="0px" y="0px"
	 viewBox="0 0 16 16" style="enable-background:new 0 0 16 16;" xml:space="preserve">
<style type="text/css">
	.st0{fill:url(#SVGID_1_);}
	.st1{fill:#F2E500;}
	.st2{fill:#FFFFFF;}
</style>
<g>
	
		<radialGradient id="SVGID_1_" cx="16" cy="16" r="16" gradientTransform="matrix(0.5 0 0 0.5 0 0)" gradientUnits="userSpaceOnUse">
		<stop  offset="0" style="stop-color:#FFFFFF"/>
		<stop  offset="0.1526" style="stop-color:#FFE8D0"/>
		<stop  offset="0.3772" style="stop-color:#FFCA91"/>
		<stop  offset="0.5825" style="stop-color:#FFB360"/>
		<stop  offset="0.7612" style="stop-color:#FFA13C"/>
		<stop  offset="0.9064" style="stop-color:#FF9726"/>
		<stop  offset="1" style="stop-color:#FF931E"/>
	</radialGradient>
	<path class="st0" d="M11.94,16H4.06C1.82,16,0,14.18,0,11.94V4.06C0,1.82,1.82,0,4.06,0h7.88C14.18,0,16,1.82,16,4.06v7.88
		C16,14.18,14.18,16,11.94,16z"/>
</g>
<g>
	<g>
		<ellipse class="st1" cx="6.03" cy="6.35" rx="3.01" ry="2.84"/>
	</g>
	<g>
		<path class="st1" d="M6.63,10.04l-0.1-0.43C6.36,8.92,5.41,8.86,5.16,9.52L4.99,9.94l0.08-0.37c0.15-0.7-0.7-1.16-1.21-0.66
			L3.54,9.22l0.19-0.25c0.43-0.58-0.16-1.36-0.83-1.1L2.52,8.01l0.25-0.14c0.64-0.36,0.4-1.32-0.33-1.35L2.12,6.51l0.32-0.04
			C3.16,6.4,3.32,5.41,2.66,5.11L2.39,4.99L2.76,5.1C3.46,5.3,3.98,4.47,3.5,3.93L3.3,3.7l0.35,0.29C4.19,4.44,5,3.91,4.79,3.22
			L4.68,2.87l0.2,0.41C5.2,3.92,6.14,3.78,6.24,3.08l0.06-0.43l0.01,0.42c0.01,0.71,0.93,0.98,1.32,0.39l0.26-0.39L7.74,3.38
			c-0.3,0.65,0.44,1.29,1.04,0.91l0.37-0.23L8.93,4.25C8.38,4.72,8.8,5.62,9.52,5.5l0.36-0.06L9.59,5.53
			C8.9,5.75,8.94,6.75,9.65,6.91l0.3,0.07L9.59,6.95C8.87,6.89,8.52,7.82,9.1,8.25l0.24,0.17l-0.37-0.2C8.33,7.89,7.65,8.59,8,9.21
			L8.17,9.5L7.88,9.14C7.44,8.58,6.55,8.93,6.6,9.64L6.63,10.04z"/>
	</g>
	<g>
		<polygon class="st1" points="6.98,3.26 6.02,6.27 8.22,3.91 6.04,6.29 9.07,4.97 6.05,6.31 9.39,6.27 6.05,6.34 9.12,7.58 
			6.04,6.36 8.31,8.67 6.02,6.38 7.09,9.36 6,6.39 5.69,9.52 5.97,6.39 4.34,9.13 5.94,6.37 3.27,8.26 5.93,6.35 2.67,7.05 
			5.92,6.33 2.65,5.71 5.92,6.3 3.2,4.49 5.94,6.28 4.24,3.58 5.97,6.27 5.57,3.14 5.99,6.26 		"/>
	</g>
	<ellipse class="st2" cx="6.06" cy="8.61" rx="3.03" ry="2.11"/>
	<ellipse transform="matrix(0.0615 -0.9981 0.9981 0.0615 1.1007 15.5559)" class="st2" cx="8.82" cy="7.19" rx="2.19" ry="3.11"/>
	<ellipse class="st2" cx="11.02" cy="9.7" rx="2.87" ry="1.78"/>
	<ellipse class="st2" cx="7.65" cy="10.84" rx="3.07" ry="1.16"/>
</g>
</svg>
